<svg xmlns="http://www.w3.org/2000/svg" viewBox="0 0 130 130"><defs><style>.cls-1{isolation:isolate;}.cls-2{opacity:0.04;}.cls-14,.cls-15,.cls-2{mix-blend-mode:multiply;}.cls-3{fill:#f78c00;}.cls-4{fill:#ffa600;}.cls-5{fill:#ffbf00;}.cls-6{fill:#fff;}.cls-7{fill:#fa17eb;}.cls-8{fill:#e8492d;}.cls-9{fill:#84e82d;}.cls-10{fill:#fafa0d;}.cls-11{fill:#2dcce8;}.cls-12{fill:#2d7be8;}.cls-13{fill:#ff9121;}.cls-14{opacity:0.11;}.cls-15{opacity:0.2;}.cls-16{fill:#ededed;}.cls-17{fill:#d1d1d1;}.cls-18,.cls-19{fill:none;stroke-miterlimit:10;}.cls-18{stroke:#c4c4c4;stroke-width:1.79px;}.cls-19{stroke:#d9d9d9;stroke-width:1.2px;}.cls-20{fill:#38c9ff;}.cls-21{fill:#5ed3ff;}.cls-22{fill:#265452;}.cls-23{fill:#ff5f45;}.cls-24{fill:#fe0;}</style></defs><title>_</title><g class="cls-1"><g id="Layer_1" data-name="Layer 1"><circle class="cls-2" cx="65.05" cy="72.36" r="54.71"/><circle class="cls-3" cx="65.92" cy="67.4" r="54.67"/><circle class="cls-4" cx="65.92" cy="62.43" r="54.67"/><path class="cls-5" d="M106,25.27,28.89,102.65l-.12-.11a55,55,0,0,1-11.94-16c-.23-.46-.44-.92-.66-1.38L88.46,12.6l1.39.65a54.91,54.91,0,0,1,16.07,11.89Z"/><path class="cls-5" d="M115.68,39.73l-72.3,72.52c-.46-.21-.93-.43-1.39-.65a54.62,54.62,0,0,1-8.17-4.91l76.26-76.5A54.18,54.18,0,0,1,115,38.34C115.25,38.8,115.47,39.26,115.68,39.73Z"/><path class="cls-3" d="M65.92,16.25a46.18,46.18,0,1,0,46.18,46.18A46.18,46.18,0,0,0,65.92,16.25Zm0,85.55a39.38,39.38,0,1,1,39.37-39.37A39.37,39.37,0,0,1,65.92,101.8Z"/><path class="cls-6" d="M26.71,79.73C24,80.32,23,81.29,22.43,84a.51.51,0,0,1-1,0c-.59-2.73-1.56-3.7-4.29-4.28a.51.51,0,0,1,0-1c2.73-.59,3.7-1.56,4.28-4.29a.51.51,0,0,1,1,0c.59,2.73,1.56,3.7,4.29,4.28A.51.51,0,0,1,26.71,79.73Z"/><path class="cls-6" d="M103.13,31c-2.28.49-3.1,1.31-3.58,3.59a.42.42,0,0,1-.83,0c-.49-2.28-1.31-3.1-3.59-3.58a.42.42,0,0,1,0-.83c2.28-.49,3.1-1.31,3.58-3.59a.42.42,0,0,1,.83,0c.49,2.28,1.31,3.1,3.59,3.58A.42.42,0,0,1,103.13,31Z"/><path class="cls-7" d="M89.46,69.87V94a39.62,39.62,0,0,1-6.57,4c-.76.36-1.53.7-2.32,1V69.87Z"/><path class="cls-8" d="M48.42,69.87V97.71c-1.07-.53-2.12-1.11-3.12-1.73a39,39,0,0,1-4.92-3.59V69.87Z"/><path class="cls-9" d="M70.21,69.87v31.7a40.69,40.69,0,0,1-4.28.23h-.46a38.64,38.64,0,0,1-4.57-.31c-.28,0-.56-.07-.83-.12V69.87Z"/><path class="cls-10" d="M60.89,69.87v31.61c-.28,0-.56-.07-.83-.12a37.93,37.93,0,0,1-4-.81c-.63-.16-1.25-.34-1.87-.54V69.87Z"/><path class="cls-11" d="M75.41,69.87v30.78a37.44,37.44,0,0,1-5.2.92V69.87Z"/><path class="cls-12" d="M82.89,69.87V98c-.76.36-1.53.7-2.32,1l-.24.09,0,0a37.25,37.25,0,0,1-4.88,1.56V69.87Z"/><path class="cls-13" d="M56,69.87v30.68c-.63-.16-1.25-.34-1.87-.54a38.52,38.52,0,0,1-5.75-2.31c-1.07-.53-2.12-1.11-3.12-1.73V69.87Z"/><rect class="cls-14" x="40.38" y="71.5" width="49.08" height="13.21"/><path class="cls-15" d="M89.46,91v3a39.62,39.62,0,0,1-6.57,4c-.76.36-1.53.7-2.32,1l-.24.09,0,0a43.18,43.18,0,0,1-4.88,1.47,42.66,42.66,0,0,1-5.2.93,46.43,46.43,0,0,1-4.74.3,38.64,38.64,0,0,1-4.57-.31c-.28,0-.56-.07-.83-.12a37.93,37.93,0,0,1-4-.81c-.63-.16-1.25-.34-1.87-.54a38.52,38.52,0,0,1-5.75-2.31c-1.07-.53-2.12-1.11-3.12-1.73a39,39,0,0,1-4.92-3.59V91l1.19.76.93.56c.91.53,1.84,1,2.79,1.49s2.06,1,3.12,1.37a45,45,0,0,0,5.29,1.72l.46.11c.46.12.92.23,1.39.33l.48.09q2,.4,4,.63l.83.08a40,40,0,0,0,4.1.18A45.1,45.1,0,0,0,70.21,98a42.75,42.75,0,0,0,5.2-.93,43.7,43.7,0,0,0,5.17-1.57c.78-.29,1.55-.61,2.32-.94A44.48,44.48,0,0,0,89.46,91Z"/><rect class="cls-16" x="38.31" y="32.43" width="53.22" height="49.03" rx="1.56" ry="1.56"/><rect class="cls-6" x="38.31" y="30.26" width="53.22" height="47.8" rx="1.56" ry="1.56"/><circle class="cls-17" cx="46.08" cy="71.5" r="4.19"/><line class="cls-18" x1="54.46" y1="70" x2="77.77" y2="70"/><line class="cls-19" x1="54.46" y1="72.99" x2="61.63" y2="72.99"/><line class="cls-19" x1="64.02" y1="72.99" x2="68.21" y2="72.99"/><path class="cls-20" d="M91.53,31.82V64.34H38.31V31.82a1.56,1.56,0,0,1,1.56-1.56H90A1.56,1.56,0,0,1,91.53,31.82Z"/><path class="cls-20" d="M91.53,33.4V64.34H38.31V33.4a1.56,1.56,0,0,1,1.56-1.56H90A1.56,1.56,0,0,1,91.53,33.4Z"/><path class="cls-21" d="M91.53,31.82V50L77.2,64.34H48.89L83,30.26h7A1.56,1.56,0,0,1,91.53,31.82Z"/><polygon class="cls-21" points="91.53 58.43 91.53 64.34 85.61 64.34 91.53 58.43"/><path class="cls-22" d="M50.29,43.23a.64.64,0,0,1-.63-.76,3.89,3.89,0,0,1,7.62,0,.64.64,0,0,1-.63.76Z"/><path class="cls-22" d="M73.15,43.2a.64.64,0,0,1-.63-.76,3.89,3.89,0,0,1,7.62,0,.64.64,0,0,1-.63.76Z"/><path class="cls-22" d="M76.29,47.76a10.64,10.64,0,0,1-.21,1.39,11.42,11.42,0,0,1-6,7.79,11.4,11.4,0,0,1-10.41,0,11.42,11.42,0,0,1-6-7.78,9.74,9.74,0,0,1-.21-1.45.9.9,0,0,1,.89-.94l21,0A.91.91,0,0,1,76.29,47.76Z"/><path class="cls-6" d="M76.29,47.76a10.64,10.64,0,0,1-.21,1.39A1.42,1.42,0,0,1,75,49.7c-1,0-1-1-2-1s-1,1-2,1-1-1-2-1-1,1-2,1-1-1-2-1-1,1-2,1-1-1-2-1-1,1-2,1-1-1-2-1-1,1-2,1a1.43,1.43,0,0,1-1.09-.56,9.74,9.74,0,0,1-.21-1.45.9.9,0,0,1,.89-.94l21,0A.91.91,0,0,1,76.29,47.76Z"/><path class="cls-23" d="M70.12,56.93a11.4,11.4,0,0,1-10.41,0,6.94,6.94,0,0,1,10.41,0Z"/><circle class="cls-6" cx="29.42" cy="85.04" r="1.29"/><path class="cls-24" d="M100.66,84.76a3.1,3.1,0,0,0-2.88,2.89.34.34,0,0,1-.67,0,3.1,3.1,0,0,0-2.89-2.88.34.34,0,0,1,0-.67,3.1,3.1,0,0,0,2.88-2.89.34.34,0,0,1,.67,0,3.1,3.1,0,0,0,2.89,2.88A.34.34,0,0,1,100.66,84.76Z"/><path class="cls-24" d="M33.1,51.38A3.32,3.32,0,0,0,30,54.48a.36.36,0,0,1-.71,0,3.32,3.32,0,0,0-3.09-3.09.36.36,0,0,1,0-.71,3.32,3.32,0,0,0,3.09-3.1.36.36,0,0,1,.71,0,3.32,3.32,0,0,0,3.09,3.09A.36.36,0,0,1,33.1,51.38Z"/><circle class="cls-24" cx="38.12" cy="42.68" r="1.25"/></g></g></svg>