<svg xmlns="http://www.w3.org/2000/svg" viewBox="0 0 130 130"><defs><style>.cls-1{isolation:isolate;}.cls-2{opacity:0.04;}.cls-2,.cls-6{mix-blend-mode:multiply;}.cls-3{fill:#90d9f0;}.cls-4{fill:#ace7fa;}.cls-5{fill:#d4f5ff;}.cls-6{opacity:0.07;}.cls-7{fill:#e0e0e0;}.cls-8{fill:#fff;}.cls-9{fill:#ffdba3;}.cls-10{fill:#4d8396;}.cls-11{fill:#ffb2b5;}.cls-12{fill:#613818;}.cls-13{fill:#e85834;}.cls-14{fill:#fff1e0;}.cls-15{fill:#a36129;}.cls-16{fill:#57473e;}.cls-17{fill:#c27331;}.cls-18{fill:#87400b;}.cls-19{fill:#cc630c;}.cls-20{fill:#ffa640;}.cls-21{fill:#fc3f3f;}.cls-22{fill:#ffbf40;}.cls-23{fill:#804b20;}.cls-24{fill:#2daefa;}.cls-25{fill:#ed8c3b;}</style></defs><title>_</title><g class="cls-1"><g id="Layer_1" data-name="Layer 1"><path class="cls-2" d="M116.2,46.85V97.4a7.29,7.29,0,0,1-3.65,6.32L68.77,129a7.28,7.28,0,0,1-7.3,0L40.92,117.12,17.7,103.72a7.29,7.29,0,0,1-3.65-6.32V46.85a7.29,7.29,0,0,1,3.65-6.32L61.48,15.26a7.28,7.28,0,0,1,7.3,0L85.63,25l26.92,15.54a7.33,7.33,0,0,1,3.65,6.32Z"/><path class="cls-3" d="M116.25,42.06V92.62a7.29,7.29,0,0,1-3.65,6.32L68.82,124.21a7.28,7.28,0,0,1-7.3,0L41,112.34,17.74,98.93a7.29,7.29,0,0,1-3.65-6.32V42.06a7.29,7.29,0,0,1,3.65-6.32L61.52,10.47a7.28,7.28,0,0,1,7.3,0L85.67,20.2,112.6,35.74a7.33,7.33,0,0,1,3.65,6.32Z"/><path class="cls-4" d="M116.24,37V87.59a7.29,7.29,0,0,1-3.65,6.32L68.82,119.18a7.28,7.28,0,0,1-7.3,0l-15.14-8.74L41,107.31l-4.42-2.55-5.83-3.37-13-7.49a7.29,7.29,0,0,1-3.65-6.32V37a7.29,7.29,0,0,1,3.65-6.32L61.52,5.44a7.29,7.29,0,0,1,7.3,0l16.85,9.73,0,0h0l19.65,11.35,5.83,3.36,1.39.8A7.32,7.32,0,0,1,116.24,37Z"/><path class="cls-5" d="M105.37,26.55,30.71,101.39l-13-7.49a7.29,7.29,0,0,1-3.65-6.32V87L85.71,15.2h0Z"/><path class="cls-5" d="M116.24,37V40.4l-69.87,70L41,107.31l-4.42-2.55L111.2,29.91l1.39.8A7.32,7.32,0,0,1,116.24,37Z"/><path class="cls-3" d="M104.2,36.82,67.72,15.75a5.1,5.1,0,0,0-5.12,0L26.13,36.82a5.12,5.12,0,0,0-2.55,4.43V83.37a5.12,5.12,0,0,0,2.55,4.43l36.48,21.06a5.1,5.1,0,0,0,5.12,0L104.2,87.8a5.13,5.13,0,0,0,2.56-4.43V41.25A5.13,5.13,0,0,0,104.2,36.82Zm-3.83,42.71a4.56,4.56,0,0,1-2.27,3.94l-30.67,17.7a4.51,4.51,0,0,1-4.54,0l-14.54-8.4-5.83-3.36-10.3-5.94A4.57,4.57,0,0,1,30,79.53V45.09a4.55,4.55,0,0,1,2.28-3.94L62.9,23.45a4.51,4.51,0,0,1,4.54,0l30.67,17.7a4.48,4.48,0,0,1,1.35,1.2,4.59,4.59,0,0,1,.92,2.74Z"/><rect class="cls-6" x="24.48" y="44.29" width="41.85" height="41.85" rx="2.15" ry="2.15" transform="translate(-21.5 22.34) rotate(-22.5)"/><rect class="cls-7" x="23.6" y="42.15" width="41.85" height="41.85" rx="2.15" ry="2.15" transform="translate(-20.75 21.84) rotate(-22.5)"/><rect class="cls-7" x="23.6" y="42.15" width="41.85" height="41.85" rx="2.15" ry="2.15" transform="translate(-20.75 21.84) rotate(-22.5)"/><rect class="cls-8" x="22.61" y="39.78" width="41.85" height="41.85" rx="2.15" ry="2.15" transform="translate(-19.92 21.28) rotate(-22.5)"/><rect class="cls-9" x="24.25" y="42.93" width="36.87" height="31.41" transform="translate(-19.19 20.8) rotate(-22.5)"/><path class="cls-8" d="M34.27,58.18C35,60,33.86,61.27,32.07,62s-3.52.63-4.27-1.15a3.5,3.5,0,1,1,6.46-2.68Z"/><path class="cls-10" d="M32.52,58.91c.34.82-.2,1.39-1,1.73s-1.6.32-1.94-.5a1.6,1.6,0,1,1,3-1.23Z"/><circle class="cls-8" cx="29.5" cy="59.06" r="0.6" transform="translate(-20.4 15.84) rotate(-22.56)"/><circle class="cls-11" cx="30.45" cy="65.51" r="1.23" transform="translate(-22.8 16.7) rotate(-22.56)"/><path class="cls-8" d="M48.33,52.35c.74,1.79,2.48,1.9,4.26,1.16s2.94-2,2.2-3.83a3.5,3.5,0,0,0-6.47,2.67Z"/><path class="cls-10" d="M50.09,51.63c.34.82,1.12.84,1.94.5s1.36-.91,1-1.72a1.6,1.6,0,1,0-3,1.22Z"/><circle class="cls-8" cx="52.33" cy="49.61" r="0.6" transform="translate(-14.97 23.73) rotate(-22.44)"/><circle class="cls-11" cx="56.22" cy="54.83" r="1.23" transform="translate(-16.67 25.61) rotate(-22.44)"/><path class="cls-12" d="M52.06,57.73a9.14,9.14,0,0,1-16.62,6.91,1.34,1.34,0,0,1,.62-2l14.17-5.89A1.35,1.35,0,0,1,52.06,57.73Z"/><path class="cls-8" d="M49.75,57l.52,1.73a.56.56,0,0,1-.32.68L38.48,64.16a.56.56,0,0,1-.71-.25l-.86-1.59Z"/><path class="cls-13" d="M50.34,65.35a9.13,9.13,0,0,1-8.28,3.44A8.41,8.41,0,0,1,45.77,66,8.41,8.41,0,0,1,50.34,65.35Z"/><path class="cls-14" d="M43.77,55.69l-3.57,1.49a1.06,1.06,0,0,1-1.56-.8h0a1.18,1.18,0,0,1,.77-1.1L43,53.79A1.18,1.18,0,0,1,44.3,54h0A1.06,1.06,0,0,1,43.77,55.69Z"/><rect class="cls-14" x="39.27" y="50.47" width="3.56" height="7.45" rx="1.78" ry="1.78" transform="translate(-17.61 19.83) rotate(-22.5)"/><rect class="cls-6" x="63.99" y="44.29" width="41.85" height="41.85" rx="2.15" ry="2.15" transform="translate(138.41 157.96) rotate(-157.5)"/><rect class="cls-7" x="64.87" y="42.15" width="41.85" height="41.85" rx="2.15" ry="2.15" transform="translate(140.93 154.19) rotate(-157.5)"/><rect class="cls-7" x="64.87" y="42.15" width="41.85" height="41.85" rx="2.15" ry="2.15" transform="translate(140.93 154.19) rotate(-157.5)"/><rect class="cls-8" x="65.86" y="39.78" width="41.85" height="41.85" rx="2.15" ry="2.15" transform="translate(143.73 150) rotate(-157.5)"/><rect class="cls-15" x="71.93" y="40.2" width="31.41" height="36.87" transform="translate(-0.07 117.17) rotate(-67.5)"/><path class="cls-8" d="M96.05,58.18c-.74,1.78.41,3.09,2.19,3.83s3.52.63,4.27-1.15a3.5,3.5,0,0,0-6.46-2.68Z"/><path class="cls-16" d="M97.8,58.91c-.34.82.2,1.39,1,1.73s1.6.32,1.94-.5a1.6,1.6,0,0,0-3-1.23Z"/><circle class="cls-8" cx="100.82" cy="59.06" r="0.6" transform="translate(7.6 129.5) rotate(-67.44)"/><circle class="cls-17" cx="99.87" cy="65.51" r="1.23" transform="translate(1.06 132.6) rotate(-67.44)"/><path class="cls-8" d="M82,52.35c-.74,1.79-2.48,1.9-4.26,1.16s-2.94-2-2.2-3.83A3.5,3.5,0,1,1,82,52.35Z"/><path class="cls-16" d="M80.24,51.63c-.34.82-1.12.84-1.94.5s-1.36-.91-1-1.72a1.6,1.6,0,1,1,3,1.22Z"/><circle class="cls-8" cx="78" cy="49.61" r="0.6" transform="translate(2.38 102.76) rotate(-67.56)"/><circle class="cls-17" cx="74.1" cy="54.83" r="1.23" transform="translate(-4.86 102.4) rotate(-67.56)"/><path class="cls-12" d="M78.26,57.73a9.14,9.14,0,0,0,16.62,6.91,1.34,1.34,0,0,0-.62-2L80.09,56.78A1.35,1.35,0,0,0,78.26,57.73Z"/><path class="cls-8" d="M80.58,57l-.52,1.73a.56.56,0,0,0,.32.68l11.47,4.76a.56.56,0,0,0,.71-.25l.86-1.59Z"/><path class="cls-13" d="M80,65.35a9.13,9.13,0,0,0,8.28,3.44A9.52,9.52,0,0,0,80,65.35Z"/><path class="cls-18" d="M86.56,55.69l3.57,1.49a1.06,1.06,0,0,0,1.56-.8h0a1.18,1.18,0,0,0-.77-1.1l-3.57-1.49A1.18,1.18,0,0,0,86,54h0A1.06,1.06,0,0,0,86.56,55.69Z"/><rect class="cls-18" x="87.49" y="50.47" width="3.56" height="7.45" rx="1.78" ry="1.78" transform="translate(151.01 138.42) rotate(-157.5)"/><rect class="cls-6" x="38.41" y="38.4" width="53.5" height="53.5" rx="2.75" ry="2.75"/><rect class="cls-7" x="38.41" y="35.45" width="53.5" height="53.5" rx="2.75" ry="2.75"/><rect class="cls-7" x="38.41" y="35.45" width="53.5" height="53.5" rx="2.75" ry="2.75"/><rect class="cls-8" x="38.41" y="32.16" width="53.5" height="53.5" rx="2.75" ry="2.75"/><rect class="cls-19" x="41.6" y="35.98" width="47.13" height="40.15"/><circle class="cls-20" cx="65.18" cy="64.05" r="8.68"/><path class="cls-21" d="M60,58.08H70.39a0,0,0,0,1,0,0v6.48a5.21,5.21,0,0,1-5.21,5.21h0A5.21,5.21,0,0,1,60,64.57V58.08a0,0,0,0,1,0,0Z"/><path class="cls-22" d="M53.66,55.27h11.5a0,0,0,0,1,0,0v1.24A11.5,11.5,0,0,1,53.66,68h0a6.37,6.37,0,0,1-6.37-6.37v0A6.37,6.37,0,0,1,53.66,55.27Z"/><path class="cls-22" d="M71.53,55.27h0A11.5,11.5,0,0,1,83,66.77V68a0,0,0,0,1,0,0H71.53a6.37,6.37,0,0,1-6.37-6.37v0A6.37,6.37,0,0,1,71.53,55.27Z" transform="translate(148.19 123.28) rotate(-180)"/><path class="cls-23" d="M71.48,55.33l-5.61,5.3a1,1,0,0,1-1.37,0l-5.61-5.3a1,1,0,0,1,.68-1.72H70.79A1,1,0,0,1,71.48,55.33Z"/><circle class="cls-8" cx="53.61" cy="47.47" r="6.02"/><path class="cls-8" d="M81.81,47.47a.88.88,0,0,1,.87,1,6,6,0,0,1-11.87,0,.88.88,0,0,1,.87-1Z"/><circle class="cls-24" cx="53.61" cy="47.47" r="3.51"/><path class="cls-24" d="M80.25,47.47a3.51,3.51,0,1,1-7,0Z"/><rect class="cls-25" x="70.39" y="41.92" width="12.28" height="2.44" rx="1.22" ry="1.22"/><path class="cls-8" d="M85.81,22.93c-2.45.53-3.32,1.4-3.84,3.85a.45.45,0,0,1-.89,0c-.53-2.45-1.4-3.32-3.85-3.84a.45.45,0,0,1,0-.89c2.45-.53,3.32-1.4,3.84-3.85a.45.45,0,0,1,.89,0c.53,2.45,1.4,3.32,3.85,3.84A.45.45,0,0,1,85.81,22.93Z"/><path class="cls-8" d="M60.3,98c-2.45.53-3.32,1.4-3.84,3.85a.45.45,0,0,1-.89,0c-.53-2.45-1.4-3.32-3.85-3.84a.45.45,0,0,1,0-.89c2.45-.53,3.32-1.4,3.84-3.85a.45.45,0,0,1,.89,0c.53,2.45,1.4,3.32,3.85,3.84A.45.45,0,0,1,60.3,98Z"/><circle class="cls-8" cx="46.44" cy="93.52" r="1.49"/><circle class="cls-25" cx="46.97" cy="52.79" r="1.83"/><circle class="cls-25" cx="83.38" cy="52.79" r="1.83"/></g></g></svg>