<svg xmlns="http://www.w3.org/2000/svg" xmlns:xlink="http://www.w3.org/1999/xlink" viewBox="0 0 130 130"><defs><style>.cls-1{fill:none;}.cls-2{isolation:isolate;}.cls-3{opacity:0.04;}.cls-11,.cls-17,.cls-3{mix-blend-mode:multiply;}.cls-4{fill:#f2ba00;}.cls-5{fill:#ffd500;}.cls-6{fill:#fe0;}.cls-7{fill:#fff;}.cls-8{clip-path:url(#clip-path);}.cls-9{fill:#ff3721;}.cls-10{fill:#cc4839;}.cls-11{opacity:0.12;}.cls-12{fill:#00a82a;}.cls-13{fill:#009625;}.cls-14{fill:#00c731;}.cls-15{fill:#00b82d;}.cls-16{fill:#00d935;}.cls-17{opacity:0.08;}.cls-18{fill:#005c37;}.cls-19{fill:#00a128;}</style><clipPath id="clip-path"><path class="cls-1" d="M99.84,43.24a39.37,39.37,0,0,0-68.79,0H14.21V83.76H32.35a39.36,39.36,0,0,0,66.18,0h13.11V43.24Z"/></clipPath></defs><title>_</title><g class="cls-2"><g id="Layer_1" data-name="Layer 1"><circle class="cls-3" cx="65.05" cy="72.36" r="54.71"/><circle class="cls-4" cx="65.44" cy="67.39" r="54.69"/><circle class="cls-5" cx="65.44" cy="62.41" r="54.69"/><path class="cls-6" d="M105.56,25.25,28.4,102.65l-.12-.11a55,55,0,0,1-11.95-16c-.23-.46-.44-.92-.66-1.38L88,12.58l1.39.65a54.93,54.93,0,0,1,16.07,11.9Z"/><path class="cls-6" d="M115.21,39.71,42.9,112.25c-.46-.21-.93-.43-1.39-.65a54.63,54.63,0,0,1-8.17-4.91l76.28-76.52a54.2,54.2,0,0,1,4.94,8.16C114.78,38.78,115,39.25,115.21,39.71Z"/><path class="cls-4" d="M65.44,16.22a46.19,46.19,0,1,0,46.2,46.2A46.19,46.19,0,0,0,65.44,16.22Zm0,85.58a39.39,39.39,0,1,1,39.38-39.38A39.38,39.38,0,0,1,65.44,101.8Z"/><ellipse class="cls-7" cx="83.47" cy="27.79" rx="2.16" ry="2.23"/><g class="cls-8"><path class="cls-9" d="M65.44,34.17h0l-2.13-5.52A2.17,2.17,0,0,1,65.44,26h0a2.17,2.17,0,0,1,2.13,2.6Z"/><path class="cls-10" d="M66.88,35h0l1.91-4.3a1.73,1.73,0,0,1,2.66-.27h0a1.73,1.73,0,0,1-.27,2.66Z"/><path class="cls-10" d="M64,35h0l-1.91-4.3a1.73,1.73,0,0,0-2.66-.27h0a1.73,1.73,0,0,0,.27,2.66Z"/><g class="cls-11"><path d="M86.8,108.18H44.08L40.85,65.52C39.74,50.85,51.07,38.33,65.44,38.33h0c14.37,0,25.7,12.52,24.59,27.19Z"/><path d="M37.36,72.19V84.73h0A11.88,11.88,0,0,1,25.47,72.84v-.39a6.15,6.15,0,0,1,6.09-6.21,5.94,5.94,0,0,1,5.79,5.94Z"/><rect x="37.36" y="75.49" width="6.58" height="9.24"/><path d="M93.52,72.19V84.73h0a11.88,11.88,0,0,0,11.88-11.88v-.39a6.15,6.15,0,0,0-6.09-6.21,5.94,5.94,0,0,0-5.79,5.94Z"/><rect x="86.94" y="75.49" width="6.58" height="9.24"/></g><path class="cls-12" d="M86.94,106h-43L40.69,63.36A25.07,25.07,0,0,1,65.44,36.17h0A25.07,25.07,0,0,1,90.19,63.36Z"/><path class="cls-13" d="M37.36,69V81.58h0A11.88,11.88,0,0,1,25.47,69.69v-.39a6.15,6.15,0,0,1,6.09-6.21A5.94,5.94,0,0,1,37.36,69Z"/><rect class="cls-13" x="37.36" y="72.34" width="6.58" height="9.24"/><path class="cls-13" d="M93.52,69V81.58h0a11.88,11.88,0,0,0,11.88-11.88v-.39a6.15,6.15,0,0,0-6.09-6.21A5.94,5.94,0,0,0,93.52,69Z"/><rect class="cls-13" x="86.94" y="72.34" width="6.58" height="9.24"/><path class="cls-14" d="M90.69,58.23c0,.66,0,1.31-.08,2L88.39,88.84l-.31,3.85-.16,2.07-.63,8.12H43.59L43,94.75l-.16-2.07-.31-3.85L40.27,60.21a25.24,25.24,0,1,1,50.41-2Z"/><path class="cls-15" d="M49,92.69l-.22-3.85L47.12,60.21C46.3,45.55,54.74,33,65.44,33h0A25.24,25.24,0,0,0,40.27,60.21l2.22,28.63.31,3.85L43,94.75l.63,8.12h5.95l-.46-8.12Z"/><path class="cls-15" d="M65.44,33h0c10.22,0,18.38,11.42,18.38,25.21,0,.66,0,1.31-.06,2L82.15,88.84l-.22,3.85-.12,2.07-.46,8.12H87.3l.63-8.12.16-2.07.31-3.85,2.22-28.63c0-.67.08-1.32.08-2A25.25,25.25,0,0,0,65.44,33Z"/><path class="cls-14" d="M56.82,92.69l-.12-3.85-.84-28.63C55.42,45.55,59.84,33,65.44,33h0C54.74,33,46.3,45.55,47.12,60.21l1.61,28.63L49,92.69l.12,2.07.46,8.12h7.59l-.24-8.12Z"/><path class="cls-14" d="M81.92,92.69l.22-3.85,1.61-28.63c0-.67.06-1.32.06-2C83.82,44.44,75.66,33,65.44,33c5.35,0,9.61,11.42,9.61,25.21,0,.66,0,1.31,0,2l-.84,28.63-.12,3.85L74,94.75l-.24,8.12h7.58l.46-8.12Z"/><path class="cls-16" d="M74.06,92.69l.12-3.85L75,60.21c0-.67,0-1.32,0-2C75.06,44.44,70.79,33,65.44,33h0c-5.6,0-10,12.53-9.58,27.18l.84,28.63.12,3.85.06,2.07.24,8.12H73.76L74,94.75Z"/><path class="cls-17" d="M65.44,96.84s-15.51,0-22.64-4.16L43,94.75a39.37,39.37,0,0,0,45,0l.16-2.07C81,96.82,65.44,96.84,65.44,96.84Z"/><path class="cls-18" d="M75.55,57.52a8.91,8.91,0,0,1-.14.89,10.18,10.18,0,0,1-19.94,0,8.91,8.91,0,0,1-.14-.89,1,1,0,0,1,1-1.15H74.53A1,1,0,0,1,75.55,57.52Z"/><path class="cls-7" d="M75.55,57.52a8.91,8.91,0,0,1-.14.89,2.09,2.09,0,0,0-.86-.17c-1.52,0-1.52,1-3,1s-1.51-1-3-1-1.52,1-3,1-1.52-1-3-1-1.52,1-3,1-1.53-1-3-1a2.09,2.09,0,0,0-.86.17,8.91,8.91,0,0,1-.14-.89,1,1,0,0,1,1-1.15H74.53A1,1,0,0,1,75.55,57.52Z"/><path class="cls-9" d="M71.19,64.77a10.16,10.16,0,0,1-11.5,0,9.77,9.77,0,0,1,5.75-1.49A9.77,9.77,0,0,1,71.19,64.77Z"/><path class="cls-18" d="M51,56.13c0,1.75-1.42,2.17-3.17,2.17s-3.17-.42-3.17-2.17a3.17,3.17,0,1,1,6.33,0Z"/><path class="cls-18" d="M86.26,56.13c0,1.75-1.42,2.17-3.17,2.17s-3.17-.42-3.17-2.17a3.17,3.17,0,1,1,6.33,0Z"/><path class="cls-16" d="M37.36,65.89V78.43h0A11.88,11.88,0,0,1,25.47,66.55v-.39A6.15,6.15,0,0,1,31.56,60a5.94,5.94,0,0,1,5.79,5.94Z"/><rect class="cls-15" x="37.36" y="69.19" width="6.58" height="9.24"/><path class="cls-16" d="M93.52,65.89V78.43h0a11.88,11.88,0,0,0,11.88-11.88v-.39A6.15,6.15,0,0,0,99.32,60a5.94,5.94,0,0,0-5.79,5.94Z"/><rect class="cls-15" x="86.94" y="69.19" width="6.58" height="9.24"/><polygon class="cls-19" points="48.58 35.93 51.56 40.32 47.17 37.34 48.58 35.93"/><polygon class="cls-19" points="46.26 38.25 49.24 42.64 44.85 39.66 46.26 38.25"/><polygon class="cls-19" points="86.03 39.66 81.64 42.64 84.63 38.25 86.03 39.66"/><polygon class="cls-19" points="83.71 37.34 79.32 40.32 82.31 35.93 83.71 37.34"/></g><path class="cls-7" d="M102.81,42c-2.53.56-3.44,1.5-4,4.12a.47.47,0,0,1-.92,0c-.55-2.62-1.45-3.56-4-4.11a.49.49,0,0,1,0-1c2.53-.56,3.44-1.5,4-4.12a.47.47,0,0,1,.92,0c.55,2.62,1.45,3.56,4,4.11A.49.49,0,0,1,102.81,42Z"/><path class="cls-7" d="M37,96.54c-1.84.41-2.5,1.09-2.89,3a.34.34,0,0,1-.67,0c-.4-1.9-1.05-2.58-2.9-3a.35.35,0,0,1,0-.69c1.84-.41,2.5-1.09,2.89-3a.34.34,0,0,1,.67,0c.4,1.9,1.05,2.58,2.9,3A.35.35,0,0,1,37,96.54Z"/></g></g></svg>