<svg xmlns="http://www.w3.org/2000/svg" viewBox="0 0 130 130"><defs><style>.cls-1{isolation:isolate;}.cls-2{opacity:0.04;}.cls-2,.cls-8{mix-blend-mode:multiply;}.cls-3{fill:#f2ba00;}.cls-4{fill:#ffd500;}.cls-5{fill:#fe0;}.cls-6{fill:#f5ff6b;}.cls-7{fill:#fff;}.cls-8{opacity:0.14;}.cls-9{fill:#e3e3e3;}.cls-10{fill:#ebebeb;}.cls-11{fill:#ff3721;}.cls-12{fill:#f0f0f0;}.cls-13{fill:#6b6b6b;}</style></defs><title>_</title><g class="cls-1"><g id="Layer_1" data-name="Layer 1"><circle class="cls-2" cx="65.05" cy="72.36" r="54.71"/><circle class="cls-3" cx="65.17" cy="67.36" r="54.71"/><circle class="cls-4" cx="65.17" cy="62.39" r="54.71"/><path class="cls-5" d="M105.31,25.2l-77.2,77.44-.12-.11a55,55,0,0,1-12-16c-.23-.46-.44-.92-.66-1.38L87.72,12.52l1.39.65a55,55,0,0,1,16.08,11.9Z"/><path class="cls-5" d="M115,39.67,42.61,112.25c-.46-.21-.93-.43-1.39-.65A54.66,54.66,0,0,1,33,106.68l76.32-76.56a54.22,54.22,0,0,1,4.94,8.16C114.53,38.74,114.75,39.21,115,39.67Z"/><path class="cls-3" d="M65.17,16.17a46.21,46.21,0,1,0,46.22,46.22A46.22,46.22,0,0,0,65.17,16.17Zm0,85.62a39.41,39.41,0,1,1,39.4-39.4A39.4,39.4,0,0,1,65.17,101.79Z"/><path class="cls-6" d="M94.22,60.51c0,2.45-3.68,4.38-4.28,6.64s1.58,5.84.4,7.89-5.35,1.91-7,3.6-1.52,5.83-3.6,7-5.55-1-7.89-.4-4.19,4.28-6.64,4.28-4.38-3.68-6.64-4.28-5.84,1.58-7.89.4-1.91-5.35-3.6-7-5.83-1.52-7-3.6,1-5.55.4-7.89S36.14,63,36.14,60.51s3.68-4.38,4.28-6.64S38.84,48,40,46s5.35-1.91,7-3.6,1.52-5.83,3.6-7,5.55,1,7.89.4,4.19-4.28,6.64-4.28,4.38,3.68,6.64,4.28,5.84-1.58,7.89-.4,1.91,5.35,3.6,7,5.83,1.52,7,3.6-1,5.55-.4,7.89S94.22,58.06,94.22,60.51Z"/><path class="cls-7" d="M86.65,18.15c-2.92.63-4,1.68-4.59,4.6a.54.54,0,0,1-1.06,0c-.63-2.92-1.68-4-4.6-4.59a.54.54,0,0,1,0-1.06c2.92-.63,4-1.68,4.59-4.6a.54.54,0,0,1,1.06,0c.63,2.92,1.68,4,4.6,4.59A.54.54,0,0,1,86.65,18.15Z"/><path class="cls-7" d="M35.94,94.91C34,95.33,33.24,96,32.82,98a.37.37,0,0,1-.72,0C31.67,96,31,95.34,29,94.91a.37.37,0,0,1,0-.72c2-.43,2.69-1.14,3.12-3.12a.37.37,0,0,1,.72,0c.43,2,1.14,2.69,3.12,3.12A.37.37,0,0,1,35.94,94.91Z"/><path class="cls-8" d="M45.25,47.59H84.38a0,0,0,0,1,0,0V82.68a1.4,1.4,0,0,1-1.4,1.4H46.65a1.4,1.4,0,0,1-1.4-1.4V47.59A0,0,0,0,1,45.25,47.59Z"/><path class="cls-9" d="M44.07,42.54H85.56a0,0,0,0,1,0,0v37A1.47,1.47,0,0,1,84.09,81H45.54a1.47,1.47,0,0,1-1.47-1.47v-37A0,0,0,0,1,44.07,42.54Z"/><path class="cls-7" d="M44.06,39.58H85.55a0,0,0,0,1,0,0V77a1,1,0,0,1-1,1H45.07a1,1,0,0,1-1-1V39.58A0,0,0,0,1,44.06,39.58Z"/><rect class="cls-10" x="44.03" y="49.48" width="41.58" height="2.82"/><path class="cls-11" d="M45.54,38.4H84.09a1.47,1.47,0,0,1,1.47,1.47v9.76a0,0,0,0,1,0,0H44.07a0,0,0,0,1,0,0V39.87A1.47,1.47,0,0,1,45.54,38.4Z"/><rect class="cls-12" x="52.05" y="34.26" width="3.55" height="8.28" rx="1.77" ry="1.77"/><rect class="cls-12" x="74.03" y="34.26" width="3.55" height="8.28" rx="1.77" ry="1.77"/><path class="cls-7" d="M55.6,36v2a1.51,1.51,0,0,0-1.51-1.51h-.52A1.51,1.51,0,0,0,52.05,38V36a1.77,1.77,0,1,1,3.55,0Z"/><path class="cls-7" d="M77.58,36v2a1.51,1.51,0,0,0-1.51-1.51h-.52A1.51,1.51,0,0,0,74,38V36a1.77,1.77,0,1,1,3.55,0Z"/><path class="cls-13" d="M70.74,61.18c0,2.26-1.64,3.72-4,5.37h4.1v4H59.41V66.71c3.21-2,6.22-3.35,6.22-4.85,0-.79-.63-1-1.88-1a9.83,9.83,0,0,0-3.62.87L59.41,58A18.52,18.52,0,0,1,65,56.88C68.18,56.88,70.74,57.74,70.74,61.18Z"/><circle class="cls-6" cx="36.23" cy="51.23" r="1.79"/><circle class="cls-7" cx="85.46" cy="28.65" r="1.65"/></g></g></svg>