<svg xmlns="http://www.w3.org/2000/svg" viewBox="0 0 130 130"><defs><style>.cls-1{isolation:isolate;}.cls-2{opacity:0.04;}.cls-2,.cls-8{mix-blend-mode:multiply;}.cls-3{fill:#f2ba00;}.cls-4{fill:#ffd500;}.cls-5{fill:#ffea00;}.cls-6{fill:#f5ff6b;}.cls-7{fill:#fff;}.cls-8{opacity:0.14;}.cls-9{fill:#e3e3e3;}.cls-10{fill:#ebebeb;}.cls-11{fill:#1093f5;}.cls-12{fill:#f0f0f0;}.cls-13{fill:#6b6b6b;}</style></defs><title>_</title><g class="cls-1"><g id="Layer_1" data-name="Layer 1"><circle class="cls-2" cx="65.05" cy="72.36" r="54.71"/><circle class="cls-3" cx="65.74" cy="67.39" r="54.69"/><circle class="cls-4" cx="65.74" cy="62.41" r="54.69"/><path class="cls-5" d="M105.86,25.25l-77.16,77.4-.12-.11a55,55,0,0,1-11.95-16c-.23-.46-.44-.92-.66-1.38L88.28,12.58l1.39.65a54.93,54.93,0,0,1,16.07,11.9Z"/><path class="cls-5" d="M115.51,39.71,43.19,112.25c-.46-.21-.93-.43-1.39-.65a54.63,54.63,0,0,1-8.17-4.91l76.28-76.52a54.2,54.2,0,0,1,4.94,8.16C115.07,38.78,115.29,39.25,115.51,39.71Z"/><path class="cls-3" d="M65.74,16.22a46.19,46.19,0,1,0,46.2,46.2A46.19,46.19,0,0,0,65.74,16.22Zm0,85.58a39.39,39.39,0,1,1,39.38-39.38A39.38,39.38,0,0,1,65.74,101.8Z"/><path class="cls-6" d="M94.78,60.54c0,2.45-3.68,4.38-4.28,6.63s1.58,5.84.4,7.89-5.35,1.91-7,3.59-1.52,5.83-3.59,7-5.55-1-7.89-.4-4.19,4.28-6.63,4.28-4.38-3.68-6.63-4.28-5.84,1.58-7.89.4-1.91-5.35-3.59-7-5.83-1.52-7-3.59,1-5.55.4-7.89S36.72,63,36.72,60.54,40.4,56.16,41,53.91s-1.58-5.84-.4-7.89,5.35-1.91,7-3.59,1.52-5.83,3.59-7,5.55,1,7.89.4,4.19-4.28,6.63-4.28,4.38,3.68,6.63,4.28,5.84-1.58,7.89-.4,1.91,5.35,3.59,7,5.83,1.52,7,3.59-1,5.55-.4,7.89S94.78,58.09,94.78,60.54Z"/><path class="cls-7" d="M87.21,18.2c-2.92.63-4,1.68-4.59,4.6a.54.54,0,0,1-1.06,0c-.63-2.92-1.67-4-4.6-4.59a.54.54,0,0,1,0-1.06c2.92-.63,4-1.68,4.59-4.6a.54.54,0,0,1,1.06,0c.63,2.92,1.67,4,4.6,4.59A.54.54,0,0,1,87.21,18.2Z"/><path class="cls-7" d="M36.52,94.92c-2,.43-2.69,1.14-3.12,3.12a.37.37,0,0,1-.72,0c-.43-2-1.14-2.69-3.12-3.12a.37.37,0,0,1,0-.72c2-.43,2.69-1.14,3.12-3.12a.37.37,0,0,1,.72,0c.43,2,1.14,2.69,3.12,3.12A.37.37,0,0,1,36.52,94.92Z"/><path class="cls-8" d="M45.83,47.63h39.1a0,0,0,0,1,0,0V82.69a1.4,1.4,0,0,1-1.4,1.4H47.23a1.4,1.4,0,0,1-1.4-1.4V47.63A0,0,0,0,1,45.83,47.63Z"/><path class="cls-9" d="M44.65,42.58H86.12a0,0,0,0,1,0,0V79.51A1.47,1.47,0,0,1,84.65,81H46.12a1.47,1.47,0,0,1-1.47-1.47V42.58A0,0,0,0,1,44.65,42.58Z"/><path class="cls-7" d="M44.64,39.62H86.11a0,0,0,0,1,0,0V77a1,1,0,0,1-1,1H45.65a1,1,0,0,1-1-1V39.62A0,0,0,0,1,44.64,39.62Z"/><rect class="cls-10" x="44.6" y="49.52" width="41.56" height="2.82"/><path class="cls-11" d="M46.12,38.44H84.65a1.47,1.47,0,0,1,1.47,1.47v9.76a0,0,0,0,1,0,0H44.65a0,0,0,0,1,0,0V39.91A1.47,1.47,0,0,1,46.12,38.44Z"/><rect class="cls-12" x="52.63" y="34.3" width="3.55" height="8.27" rx="1.77" ry="1.77"/><rect class="cls-12" x="74.6" y="34.3" width="3.55" height="8.27" rx="1.77" ry="1.77"/><path class="cls-7" d="M56.17,36.08v2a1.51,1.51,0,0,0-1.51-1.51h-.52a1.51,1.51,0,0,0-1.51,1.51v-2a1.77,1.77,0,1,1,3.54,0Z"/><path class="cls-7" d="M78.14,36.08v2a1.51,1.51,0,0,0-1.51-1.51h-.52a1.51,1.51,0,0,0-1.51,1.51v-2a1.77,1.77,0,1,1,3.54,0Z"/><path class="cls-13" d="M57.59,62.95H54.36V60c2,0,4-.59,4.08-2.87h4.18V70.55h-5Z"/><path class="cls-13" d="M76.64,68.16H75.33v2.4H70.68v-2.4H64.12V64.42l5.29-7.25h5.92v7.33h1.31Zm-5.86-3.56V61.15l-2.54,3.45Z"/><circle class="cls-6" cx="36.81" cy="51.26" r="1.79"/><circle class="cls-7" cx="86.02" cy="28.7" r="1.65"/></g></g></svg>