<svg xmlns="http://www.w3.org/2000/svg" viewBox="0 0 130 130"><defs><style>.cls-1{isolation:isolate;}.cls-2{opacity:0.04;}.cls-2,.cls-8{mix-blend-mode:multiply;}.cls-3{fill:#f2ba00;}.cls-4{fill:#ffd500;}.cls-5{fill:#ffea00;}.cls-6{fill:#f5ff6b;}.cls-7{fill:#fff;}.cls-8{opacity:0.14;}.cls-9{fill:#e3e3e3;}.cls-10{fill:#ebebeb;}.cls-11{fill:#88c440;}.cls-12{fill:#f0f0f0;}.cls-13{fill:#6b6b6b;}</style></defs><title>_</title><g class="cls-1"><g id="Layer_1" data-name="Layer 1"><circle class="cls-2" cx="65.05" cy="72.36" r="54.71"/><circle class="cls-3" cx="65.63" cy="67.36" r="54.71"/><circle class="cls-4" cx="65.63" cy="62.39" r="54.71"/><path class="cls-5" d="M105.77,25.2l-77.2,77.44-.12-.11a55,55,0,0,1-12-16c-.23-.46-.44-.92-.66-1.38L88.18,12.52l1.39.65a55,55,0,0,1,16.08,11.9Z"/><path class="cls-5" d="M115.42,39.68,43.07,112.25c-.46-.21-.93-.43-1.39-.65a54.66,54.66,0,0,1-8.18-4.91l76.31-76.56a54.22,54.22,0,0,1,4.94,8.16C115,38.74,115.21,39.21,115.42,39.68Z"/><path class="cls-3" d="M65.63,16.17a46.21,46.21,0,1,0,46.22,46.22A46.21,46.21,0,0,0,65.63,16.17Zm0,85.62A39.4,39.4,0,1,1,105,62.39,39.4,39.4,0,0,1,65.63,101.79Z"/><path class="cls-6" d="M94.68,60.51c0,2.45-3.68,4.38-4.28,6.64S92,73,90.79,75s-5.35,1.91-7,3.6-1.52,5.83-3.6,7-5.55-1-7.89-.4-4.19,4.28-6.64,4.28S61.26,85.87,59,85.27s-5.84,1.58-7.89.4-1.91-5.35-3.6-7-5.83-1.52-7-3.6,1-5.55.4-7.89S36.6,63,36.6,60.51s3.68-4.38,4.28-6.64S39.3,48,40.48,46s5.35-1.91,7-3.6,1.52-5.83,3.6-7,5.55,1,7.89.4,4.19-4.28,6.64-4.28,4.38,3.68,6.64,4.28,5.84-1.58,7.89-.4,1.91,5.35,3.6,7,5.83,1.52,7,3.6-1,5.55-.4,7.89S94.68,58.06,94.68,60.51Z"/><path class="cls-7" d="M87.11,18.16c-2.92.63-4,1.68-4.59,4.6a.54.54,0,0,1-1.06,0c-.63-2.92-1.68-4-4.6-4.59a.54.54,0,0,1,0-1.06c2.92-.63,4-1.68,4.59-4.6a.54.54,0,0,1,1.06,0c.63,2.92,1.68,4,4.6,4.59A.54.54,0,0,1,87.11,18.16Z"/><path class="cls-7" d="M36.4,94.91c-2,.43-2.69,1.14-3.12,3.12a.37.37,0,0,1-.72,0c-.43-2-1.14-2.69-3.12-3.12a.37.37,0,0,1,0-.72c2-.43,2.69-1.14,3.12-3.12a.37.37,0,0,1,.72,0c.43,2,1.14,2.69,3.12,3.12A.37.37,0,0,1,36.4,94.91Z"/><path class="cls-8" d="M45.71,47.59H84.83a0,0,0,0,1,0,0V82.68a1.4,1.4,0,0,1-1.4,1.4H47.11a1.4,1.4,0,0,1-1.4-1.4V47.59A0,0,0,0,1,45.71,47.59Z"/><path class="cls-9" d="M44.53,42.54H86a0,0,0,0,1,0,0v37A1.47,1.47,0,0,1,84.54,81H46a1.47,1.47,0,0,1-1.47-1.47v-37A0,0,0,0,1,44.53,42.54Z"/><path class="cls-7" d="M44.52,39.58H86a0,0,0,0,1,0,0V77a1,1,0,0,1-1,1H45.53a1,1,0,0,1-1-1V39.58A0,0,0,0,1,44.52,39.58Z"/><rect class="cls-10" x="44.48" y="49.48" width="41.58" height="2.82"/><path class="cls-11" d="M46,38.4H84.54A1.47,1.47,0,0,1,86,39.87v9.76a0,0,0,0,1,0,0H44.53a0,0,0,0,1,0,0V39.87A1.47,1.47,0,0,1,46,38.4Z"/><rect class="cls-12" x="52.51" y="34.26" width="3.55" height="8.28" rx="1.77" ry="1.77"/><rect class="cls-12" x="74.49" y="34.26" width="3.55" height="8.28" rx="1.77" ry="1.77"/><path class="cls-7" d="M56.06,36v2a1.51,1.51,0,0,0-1.51-1.51H54A1.51,1.51,0,0,0,52.51,38V36a1.77,1.77,0,1,1,3.55,0Z"/><path class="cls-7" d="M78,36v2a1.51,1.51,0,0,0-1.51-1.51H76A1.51,1.51,0,0,0,74.49,38V36A1.77,1.77,0,1,1,78,36Z"/><path class="cls-13" d="M71.28,57.14v3.58a16.1,16.1,0,0,0-3.88,9.8H62.19c.08-3.21,1.64-6.34,3.54-9.27H60.09V57.14Z"/><circle class="cls-6" cx="36.69" cy="51.23" r="1.79"/><circle class="cls-7" cx="85.92" cy="28.65" r="1.65"/></g></g></svg>